<?xml version="1.0" standalone="no"?>
<svg viewBox="0 0 200 200" xmlns="http://www.w3.org/2000/svg">
  <path fill="#95CBF1" d="M42.1,-62.8C51,-51.5,52.2,-34.4,57.2,-18.7C62.2,-2.9,71.1,11.5,70.7,26.1C70.2,40.6,60.5,55.2,47.2,62.6C33.8,70.1,16.9,70.3,-1,71.7C-18.9,73.1,-37.8,75.6,-50.2,67.9C-62.6,60.1,-68.5,42.2,-73.5,24.4C-78.5,6.7,-82.7,-10.8,-77.4,-24.5C-72.1,-38.3,-57.3,-48.4,-42.8,-57.9C-28.3,-67.3,-14.2,-76.2,1.2,-77.9C16.6,-79.6,33.2,-74.1,42.1,-62.8Z" transform="translate(100 100)" />
</svg>
